<svg viewBox="0 0 200 60" xmlns="http://www.w3.org/2000/svg">
  <rect width="200" height="60" rx="6" fill="#1434CB"/>
  <path d="M88.13 45.51L94.67 14.49h10.26l-6.54 31.02H88.13zM128.69 16.85c-2.05-.81-5.26-1.68-9.26-1.68-10.23 0-17.44 5.42-17.5 13.19-.06 5.74 5.14 8.94 9.06 10.84 4.03 1.95 5.38 3.19 5.36 4.93-.03 2.66-3.2 3.87-6.15 3.87-4.11 0-6.29-.6-9.65-2.07l-1.32-.63-1.44 8.86c2.42 1.11 6.9 2.07 11.54 2.12 10.87 0 17.91-5.36 17.98-13.66.04-4.55-2.72-8.02-8.68-10.87-3.6-1.85-5.8-3.08-5.78-4.95 0-1.66 1.87-3.43 5.91-3.43 3.38-.05 5.82.72 7.72 1.52l.93.46 1.40-8.50h-.12zM158.43 14.49h-7.94c-2.46 0-4.30.71-5.38 3.31L128.13 45.51h10.86s1.77-4.90 2.18-5.98c1.18 0 11.68.02 13.16.02.31 1.36 1.25 5.96 1.25 5.96h9.60l-8.75-31.02h2zm-12.19 19.66c.85-2.28 4.10-11.04 4.10-11.04-.06.10.84-2.28 1.36-3.76l.69 3.37s1.95 9.34 2.36 11.43h-8.51zM73.59 14.49L63.18 38.98l-1.07-5.42s-3.16-16.19-3.17-16.19c-.53-2.07-1.98-2.70-3.73-2.88H35.33l-.13.63c3.45.74 7.37 1.95 9.75 3.23 1.45.78 1.66 1.46 2.08 3.30l7.81 30.86h10.92L81.52 14.49H73.59z" fill="white"/>
</svg>
